<?xml version="1.0" encoding="UTF-8"?>
<svg width="4096" height="4096" viewBox="0 0 4096 4096" xmlns="http://www.w3.org/2000/svg">
  <!-- ============================================== -->
  <!-- ShareConnect Advanced Icon Template -->
  <!-- Application: MatrixConnect -->
  <!-- Concept: Matrix-style chat bubbles -->
  <!-- Version: 1.0.0 -->
  <!-- ============================================== -->
  
  <!-- DESIGN GUIDELINES -->
  <!-- 
  - Background: Light blue circle (#4FC3F7) at 90% opacity
  - Foreground: White icons with subtle gradients
  - Stroke: 120px uniform stroke weight
  - Padding: 400px from circle edge
  - Scale: Fill 70% of circle area (2520px diameter)
  - Export: 4096x4096 PNG with transparency
  -->
  
  <!-- DESIGN GRID (Comment out before export) -->
  <defs>
    <!-- Safe area guides -->
    <circle id="safe-area" cx="2048" cy="2048" r="1800" fill="none" stroke="#FF6B6B" stroke-width="4" stroke-dasharray="20,10" opacity="0.3"/>
    <circle id="icon-area" cx="2048" cy="2048" r="1260" fill="none" stroke="#FF6B6B" stroke-width="2" stroke-dasharray="10,5" opacity="0.3"/>
    
    <!-- Center guides -->
    <line id="center-vertical" x1="2048" y1="248" x2="2048" y2="3848" stroke="#FF6B6B" stroke-width="2" stroke-dasharray="5,5" opacity="0.2"/>
    <line id="center-horizontal" x1="248" y1="2048" x2="3848" y2="2048" stroke="#FF6B6B" stroke-width="2" stroke-dasharray="5,5" opacity="0.2"/>
  </defs>
  
  <!-- BACKGROUND -->
  <g id="background">
    <!-- Light blue circular background with gradient -->
    <defs>
      <radialGradient id="bgGradient" cx="0.5" cy="0.5" r="0.8">
        <stop offset="0%" stop-color="#6FD4FF" stop-opacity="0.95"/>
        <stop offset="100%" stop-color="#4FC3F7" stop-opacity="0.9"/>
      </radialGradient>
    </defs>
    <circle cx="2048" cy="2048" r="1800" fill="url(#bgGradient)"/>
    
    <!-- Subtle shadow for depth -->
    <defs>
      <filter id="shadow" x="-20%" y="-20%" width="140%" height="140%">
        <feDropShadow dx="40" dy="40" stdDeviation="60" flood-color="#000000" flood-opacity="0.15"/>
      </filter>
    </defs>
    <circle cx="2048" cy="2048" r="1800" fill="#4FC3F7" filter="url(#shadow)" opacity="0.3"/>
  </g>
  
  <!-- FOREGROUND ICON AREA -->
  <g id="foreground" transform="translate(2048, 2048)">
     <!-- Application-specific icon: Matrix-style encrypted chat bubbles -->
     <g id="encrypted-chat-icon">
       <!-- Chat bubbles -->
       <path d="M-400,-200 Q-400,-300 -300,-300 L200,-300 Q300,-300 300,-200 L300,100 Q300,200 200,200 L-100,200 L-150,250 L-200,200 L-300,200 Q-400,200 -400,100 Z" fill="#2196F3" stroke="#0D47A1" stroke-width="15"/>
       <path d="M100,200 Q100,100 200,100 L500,100 Q600,100 600,200 L600,400 Q600,500 500,500 L300,500 L250,550 L200,500 L100,500 Q0,500 0,400 Z" fill="#4CAF50" stroke="#2E7D32" stroke-width="15"/>
       <!-- Lock symbol -->
       <rect x="-80" y="-100" width="160" height="120" rx="20" fill="#FFC107" stroke="#FF8F00" stroke-width="10"/>
       <rect x="-40" y="-60" width="80" height="60" rx="8" fill="#FF8F00"/>
       <circle cx="0" cy="-30" r="15" fill="#FFC107"/>
       <!-- Encryption waves -->
       <path d="M-600,-400 Q-400,-500 -200,-400 Q0,-300 200,-400 Q400,-500 600,-400" stroke="#E91E63" stroke-width="20" fill="none" stroke-linecap="round"/>
       <path d="M-600,400 Q-400,300 -200,400 Q0,500 200,400 Q400,300 600,400" stroke="#9C27B0" stroke-width="20" fill="none" stroke-linecap="round"/>
       <!-- Matrix dots -->
       <circle cx="-500" cy="-300" r="15" fill="#E91E63"/>
       <circle cx="500" cy="-300" r="15" fill="#E91E63"/>
       <circle cx="-500" cy="300" r="15" fill="#9C27B0"/>
       <circle cx="500" cy="300" r="15" fill="#9C27B0"/>
       <!-- Chat text lines -->
       <line x1="-200" y1="-150" x2="100" y2="-150" stroke="#FFFFFF" stroke-width="12" stroke-linecap="round"/>
       <line x1="-200" y1="-100" x2="50" y2="-100" stroke="#FFFFFF" stroke-width="12" stroke-linecap="round"/>
       <line x1="200" y1="300" x2="400" y2="300" stroke="#FFFFFF" stroke-width="12" stroke-linecap="round"/>
       <line x1="200" y1="350" x2="350" y2="350" stroke="#FFFFFF" stroke-width="12" stroke-linecap="round"/>
     </g>
    
    <!-- DESIGN NOTES: -->
    <!-- 
    1. Keep icon within 2520px diameter circle
    2. Use 120px stroke weight for consistency
    3. Apply subtle gradients for depth
    4. Ensure recognizability at small sizes
    5. Maintain visual balance and symmetry
    -->
  </g>
  
  <!-- DESIGN GUIDES (Comment out before final export) -->
  <g id="design-guides">
    <use href="#safe-area"/>
    <use href="#icon-area"/>
    <use href="#center-vertical"/>
    <use href="#center-horizontal"/>
    
    <!-- Design notes text -->
    <text x="2048" y="100" text-anchor="middle" 
          font-family="Arial, sans-serif" font-size="60" 
          fill="#FF6B6B" font-weight="bold">
      MatrixConnect - DESIGN TEMPLATE
    </text>
    
    <text x="2048" y="180" text-anchor="middle" 
          font-family="Arial, sans-serif" font-size="40" 
          fill="#FF6B6B" font-style="italic">
      Concept: Matrix-style chat bubbles
    </text>
    
    <text x="2048" y="3900" text-anchor="middle" 
          font-family="Arial, sans-serif" font-size="40" 
          fill="#333333" fill-opacity="0.6">
      Remove design guides before final export
    </text>
  </g>
  
  <!-- EXPORT INSTRUCTIONS -->
  <!-- 
  FINAL EXPORT STEPS:
  1. Comment out or remove the <g id="design-guides"> section
  2. Remove opacity from placeholder icon or replace with final design
  3. Export as PNG 4096x4096 with transparency
  4. Save as: icon_matrixconnect_4k.png
  5. Verify icon looks good at 48x48 size
  -->
</svg>
