<?xml version="1.0" encoding="UTF-8"?>
<svg width="4096" height="4096" viewBox="0 0 4096 4096" xmlns="http://www.w3.org/2000/svg">
  <!-- ============================================== -->
  <!-- ShareConnect Advanced Icon Template -->
  <!-- Application: WireGuardConnect -->
  <!-- Concept: Shield with network waves -->
  <!-- Version: 1.0.0 -->
  <!-- ============================================== -->
  
  <!-- DESIGN GUIDELINES -->
  <!-- 
  - Background: Light blue circle (#4FC3F7) at 90% opacity
  - Foreground: White icons with subtle gradients
  - Stroke: 120px uniform stroke weight
  - Padding: 400px from circle edge
  - Scale: Fill 70% of circle area (2520px diameter)
  - Export: 4096x4096 PNG with transparency
  -->
  
  <!-- DESIGN GRID (Comment out before export) -->
  <defs>
    <!-- Safe area guides -->
    <circle id="safe-area" cx="2048" cy="2048" r="1800" fill="none" stroke="#FF6B6B" stroke-width="4" stroke-dasharray="20,10" opacity="0.3"/>
    <circle id="icon-area" cx="2048" cy="2048" r="1260" fill="none" stroke="#FF6B6B" stroke-width="2" stroke-dasharray="10,5" opacity="0.3"/>
    
    <!-- Center guides -->
    <line id="center-vertical" x1="2048" y1="248" x2="2048" y2="3848" stroke="#FF6B6B" stroke-width="2" stroke-dasharray="5,5" opacity="0.2"/>
    <line id="center-horizontal" x1="248" y1="2048" x2="3848" y2="2048" stroke="#FF6B6B" stroke-width="2" stroke-dasharray="5,5" opacity="0.2"/>
  </defs>
  
  <!-- BACKGROUND -->
  <g id="background">
    <!-- Light blue circular background with gradient -->
    <defs>
      <radialGradient id="bgGradient" cx="0.5" cy="0.5" r="0.8">
        <stop offset="0%" stop-color="#6FD4FF" stop-opacity="0.95"/>
        <stop offset="100%" stop-color="#4FC3F7" stop-opacity="0.9"/>
      </radialGradient>
    </defs>
    <circle cx="2048" cy="2048" r="1800" fill="url(#bgGradient)"/>
    
    <!-- Subtle shadow for depth -->
    <defs>
      <filter id="shadow" x="-20%" y="-20%" width="140%" height="140%">
        <feDropShadow dx="40" dy="40" stdDeviation="60" flood-color="#000000" flood-opacity="0.15"/>
      </filter>
    </defs>
    <circle cx="2048" cy="2048" r="1800" fill="#4FC3F7" filter="url(#shadow)" opacity="0.3"/>
  </g>
  
  <!-- FOREGROUND ICON AREA -->
  <g id="foreground" transform="translate(2048, 2048)">
     <!-- Application-specific icon: VPN shield with network waves -->
     <g id="wireguard-vpn-icon">
       <!-- Shield base -->
       <path d="M-200,-400 L200,-400 L250,-200 L250,400 L-250,400 L-250,-200 Z" fill="#2196F3" stroke="#0D47A1" stroke-width="20"/>
       <!-- Shield top curve -->
       <path d="M-200,-400 Q0,-500 200,-400" fill="none" stroke="#0D47A1" stroke-width="20"/>
       <!-- Lock symbol on shield -->
       <rect x="-80" y="-150" width="160" height="120" rx="20" fill="#FFC107" stroke="#FF8F00" stroke-width="10"/>
       <rect x="-40" y="-110" width="80" height="60" rx="8" fill="#FF8F00"/>
       <circle cx="0" cy="-80" r="15" fill="#FFC107"/>
       <!-- Network waves emanating from shield -->
       <path d="M-400,-300 Q-200,-400 0,-300 Q200,-200 400,-300" stroke="#4CAF50" stroke-width="20" fill="none" stroke-linecap="round"/>
       <path d="M-450,-100 Q-250,-200 -50,-100 Q150,0 350,-100" stroke="#E91E63" stroke-width="15" fill="none" stroke-linecap="round"/>
       <path d="M-400,100 Q-200,0 0,100 Q200,200 400,100" stroke="#9C27B0" stroke-width="15" fill="none" stroke-linecap="round"/>
       <!-- Connected devices -->
       <circle cx="-500" cy="-200" r="40" fill="#607D8B" stroke="#455A64" stroke-width="8"/>
       <circle cx="500" cy="-200" r="40" fill="#607D8B" stroke="#455A64" stroke-width="8"/>
       <circle cx="-500" cy="200" r="40" fill="#607D8B" stroke="#455A64" stroke-width="8"/>
       <circle cx="500" cy="200" r="40" fill="#607D8B" stroke-width="8" stroke="#455A64"/>
       <!-- Connection lines -->
       <line x1="-250" y1="-200" x2="-500" y2="-200" stroke="#4CAF50" stroke-width="15" stroke-linecap="round"/>
       <line x1="250" y1="-200" x2="500" y2="-200" stroke="#4CAF50" stroke-width="15" stroke-linecap="round"/>
       <line x1="-250" y1="200" x2="-500" y2="200" stroke="#E91E63" stroke-width="15" stroke-linecap="round"/>
       <line x1="250" y1="200" x2="500" y2="200" stroke="#E91E63" stroke-width="15" stroke-linecap="round"/>
       <!-- VPN tunnel visualization -->
       <path d="M-300,-100 Q-100,-50 0,-100 Q100,-150 300,-100" stroke="#2196F3" stroke-width="25" fill="none" stroke-linecap="round" stroke-dasharray="50,25"/>
       <!-- Security indicators -->
       <circle cx="-150" cy="-50" r="20" fill="#4CAF50"/>
       <circle cx="0" cy="-50" r="20" fill="#4CAF50"/>
       <circle cx="150" cy="-50" r="20" fill="#4CAF50"/>
       <!-- Key symbol -->
       <path d="M-50,300 L-20,300 L-20,330 L50,330 L50,300 L80,300 L80,360 L-50,360 Z" fill="#FFC107" stroke="#FF8F00" stroke-width="8"/>
       <circle cx="0" cy="345" r="12" fill="#FF8F00"/>
       <rect x="-8" y="333" width="16" height="24" fill="#FFC107"/>
       <!-- Globe/network indicator -->
       <circle cx="0" cy="0" r="80" fill="none" stroke="#E91E63" stroke-width="12"/>
       <path d="M-80,0 L80,0" stroke="#E91E63" stroke-width="8"/>
       <path d="M0,-80 L0,80" stroke="#E91E63" stroke-width="8"/>
       <circle cx="0" cy="0" r="60" fill="none" stroke="#E91E63" stroke-width="6"/>
     </g>
    
    <!-- DESIGN NOTES: -->
    <!-- 
    1. Keep icon within 2520px diameter circle
    2. Use 120px stroke weight for consistency
    3. Apply subtle gradients for depth
    4. Ensure recognizability at small sizes
    5. Maintain visual balance and symmetry
    -->
  </g>
  
  <!-- DESIGN GUIDES (Comment out before final export) -->
  <g id="design-guides">
    <use href="#safe-area"/>
    <use href="#icon-area"/>
    <use href="#center-vertical"/>
    <use href="#center-horizontal"/>
    
    <!-- Design notes text -->
    <text x="2048" y="100" text-anchor="middle" 
          font-family="Arial, sans-serif" font-size="60" 
          fill="#FF6B6B" font-weight="bold">
      WireGuardConnect - DESIGN TEMPLATE
    </text>
    
    <text x="2048" y="180" text-anchor="middle" 
          font-family="Arial, sans-serif" font-size="40" 
          fill="#FF6B6B" font-style="italic">
      Concept: Shield with network waves
    </text>
    
    <text x="2048" y="3900" text-anchor="middle" 
          font-family="Arial, sans-serif" font-size="40" 
          fill="#333333" fill-opacity="0.6">
      Remove design guides before final export
    </text>
  </g>
  
  <!-- EXPORT INSTRUCTIONS -->
  <!-- 
  FINAL EXPORT STEPS:
  1. Comment out or remove the <g id="design-guides"> section
  2. Remove opacity from placeholder icon or replace with final design
  3. Export as PNG 4096x4096 with transparency
  4. Save as: icon_wireguardconnect_4k.png
  5. Verify icon looks good at 48x48 size
  -->
</svg>
